<?xml version="1.0" encoding="UTF-8"?>
<svg version="1.1" xmlns="http://www.w3.org/2000/svg" width="100" height="100">
<path d="M0 0 C0.33 3.3 0.66 6.6 1 10 C4.5863464 8.06143438 6.62660802 6.2775413 9 3 C9.66 3 10.32 3 11 3 C11.804375 3.969375 12.60875 4.93875 13.4375 5.9375 C15.70684377 9.19375327 15.70684377 9.19375327 19 10 C19.33 6.7 19.66 3.4 20 0 C22.47395833 0.74869792 24.94791667 1.49739583 27.421875 2.24609375 C29.93198183 3.01683651 29.93198183 3.01683651 32.265625 3.47265625 C32.83796875 3.64667969 33.4103125 3.82070313 34 4 C36.93072318 9.86144636 35.85962647 20.87799294 34.140625 27.12109375 C33.20419702 29.18734245 32.21480573 31.08753475 31 33 C30.505 33.99 30.505 33.99 30 35 C25.28590117 34.88108648 20.57198482 34.75679871 15.8581543 34.62768555 C14.25695576 34.58456704 12.65571804 34.54287736 11.05444336 34.50268555 C8.74320709 34.44441909 6.43216387 34.38089215 4.12109375 34.31640625 C3.0597245 34.29133751 3.0597245 34.29133751 1.97691345 34.26576233 C-2.41379696 34.13701098 -6.69679626 33.9078047 -11 33 C-13.92465363 28.61301956 -15.12412725 24.18573602 -15.1328125 18.9609375 C-15.13410156 18.21585938 -15.13539062 17.47078125 -15.13671875 16.703125 C-15.13285156 15.93484375 -15.12898438 15.1665625 -15.125 14.375 C-15.12886719 13.59898438 -15.13273437 12.82296875 -15.13671875 12.0234375 C-15.12670133 6.25340266 -15.12670133 6.25340266 -14 4 C-11.78515625 3.18359375 -11.78515625 3.18359375 -9.0625 2.4375 C-0.28497409 0 -0.28497409 0 0 0 Z M8 13 C7.67 13.66 7.34 14.32 7 15 C7.33 15.99 7.66 16.98 8 18 C9.32 18 10.64 18 12 18 C12.33 16.68 12.66 15.36 13 14 C11.35 13.67 9.7 13.34 8 13 Z M2 17 C1.67 18.32 1.34 19.64 1 21 C3.475 21.495 3.475 21.495 6 22 C6.33 20.68 6.66 19.36 7 18 C5.35 17.67 3.7 17.34 2 17 Z M13 18 C13.33 19.32 13.66 20.64 14 22 C15.65 21.67 17.3 21.34 19 21 C18.67 19.68 18.34 18.36 18 17 C15.0745356 16.7763932 15.0745356 16.7763932 13 18 Z M6 23 C4.515 24.98 4.515 24.98 3 27 C3.66 27.66 4.32 28.32 5 29 C5.99 29 6.98 29 8 29 C8.33 27.68 8.66 26.36 9 25 C8.34 25 7.68 25 7 25 C6.67 24.34 6.34 23.68 6 23 Z M13 23 C13 23.66 13 24.32 13 25 C12.34 25 11.68 25 11 25 C11.33 26.32 11.66 27.64 12 29 C13.32 28.67 14.64 28.34 16 28 C16 27.01 16 26.02 16 25 C15.01 24.34 14.02 23.68 13 23 Z " fill="#000000" transform="translate(40,50)"/>
<path d="M0 0 C3.82728294 3.29324346 7.05733816 6.42201447 8.6875 11.3125 C8.78236304 13.03956528 8.81737916 14.77033828 8.8125 16.5 C8.80992188 17.48097656 8.80734375 18.46195313 8.8046875 19.47265625 C8.70463223 21.89732902 8.4050094 24.06655947 7.9375 26.4375 C7.59505227 31.7454398 9.26758117 34.61932409 11.6875 39.3125 C7.0675 39.3125 2.4475 39.3125 -2.3125 39.3125 C-2.3125 42.2825 -2.3125 45.2525 -2.3125 48.3125 C-6.49449633 46.22150184 -7.30909367 45.31931267 -9.3125 41.3125 C-9.3125 40.6525 -9.3125 39.9925 -9.3125 39.3125 C-9.9725 39.3125 -10.6325 39.3125 -11.3125 39.3125 C-11.580625 40.055 -11.84875 40.7975 -12.125 41.5625 C-13.26526751 44.20311949 -14.40630306 46.16802844 -16.3125 48.3125 C-16.9725 48.3125 -17.6325 48.3125 -18.3125 48.3125 C-18.3125 45.3425 -18.3125 42.3725 -18.3125 39.3125 C-22.9325 39.3125 -27.5525 39.3125 -32.3125 39.3125 C-31.631875 37.9925 -30.95125 36.6725 -30.25 35.3125 C-28.50493175 31.38150415 -28.10893062 28.79984054 -28.9375 24.484375 C-29.89333403 18.94850289 -29.96793422 13.35591256 -28.25 8 C-21.24348016 -1.71872107 -11.14190517 -5.6760649 0 0 Z M-14.3125 11.3125 C-16.30049818 12.01414642 -18.29948517 12.68622872 -20.3125 13.3125 C-20.94231991 19.28587227 -20.94231991 19.28587227 -17.9375 24.25 C-14.12914721 27.2422772 -12.157372 27.69248996 -7.3125 27.3125 C-3.81843231 25.64487678 -2.48579319 24.57243978 -0.3125 21.3125 C-0.07194532 19.25540404 -0.07194532 19.25540404 -0.1875 17.125 C-0.22875 15.866875 -0.27 14.60875 -0.3125 13.3125 C-1.7687545 12.64130451 -3.22757867 11.97568193 -4.6875 11.3125 C-5.49960937 10.94125 -6.31171875 10.57 -7.1484375 10.1875 C-10.65069514 8.77142471 -11.02214034 9.11892689 -14.3125 11.3125 Z " fill="#000000" transform="translate(60.3125,9.6875)"/>
<path d="M0 0 C12.54 0 25.08 0 38 0 C38 2.31 38 4.62 38 7 C25.46 7 12.92 7 0 7 C0 4.69 0 2.38 0 0 Z " fill="#000000" transform="translate(31,87)"/>
<path d="M0 0 C2.64 0 5.28 0 8 0 C7.34 1.32 6.68 2.64 6 4 C4.35 3.67 2.7 3.34 1 3 C0.67 2.01 0.34 1.02 0 0 Z " fill="#000000" transform="translate(46,31)"/>
<path d="M0 0 C1.98 0.495 1.98 0.495 4 1 C4 2.32 4 3.64 4 5 C3.01 5.33 2.02 5.66 1 6 C0.34 5.67 -0.32 5.34 -1 5 C-0.67 3.35 -0.34 1.7 0 0 Z " fill="#000000" transform="translate(54,23)"/>
<path d="M0 0 C1.98 0.495 1.98 0.495 4 1 C4 2.32 4 3.64 4 5 C3.01 5.33 2.02 5.66 1 6 C0.34 5.67 -0.32 5.34 -1 5 C-0.67 3.35 -0.34 1.7 0 0 Z " fill="#000000" transform="translate(43,23)"/>
</svg>
